<?xml version="1.0" encoding="UTF-8"?>
<svg width="38px" height="32px" viewBox="0 0 38 32" version="1.1" xmlns="http://www.w3.org/2000/svg" xmlns:xlink="http://www.w3.org/1999/xlink">
    <!-- Generator: Sketch 47.1 (45422) - http://www.bohemiancoding.com/sketch -->
    <title>Group</title>
    <desc>Created with Sketch.</desc>
    <defs></defs>
    <g id="Page-1" stroke="none" stroke-width="1" fill="none" fill-rule="evenodd">
        <g id="volume-up" transform="translate(-18.000000, -21.000000)">
            <g id="Group">
                <path d="M37,1.23333333 C17.2666667,1.23333333 1.23333333,17.2666667 1.23333333,37 C1.23333333,56.7333333 17.2666667,72.7666667 37,72.7666667 C56.7333333,72.7666667 72.7666667,56.7333333 72.7666667,37 C72.7666667,17.2666667 56.7333333,1.23333333 37,1.23333333 Z M25.6533333,44.0711111 L18.0066667,44.0711111 L18.0066667,29.9288889 L25.6533333,29.9288889 L25.6533333,44.0711111 Z M39.22,52.9511111 L26.4755556,44.0711111 L26.4755556,29.9288889 L39.22,21.0488889 L39.22,52.9511111 Z M44.2355556,41.6866667 C45.3866667,40.4533333 46.1266667,38.8088889 46.1266667,37 C46.1266667,35.1911111 45.3866667,33.5466667 44.1533333,32.3133333 L45.3044444,31.1622222 C46.7844444,32.6422222 47.7711111,34.6977778 47.7711111,37 C47.7711111,39.22 46.8666667,41.3577778 45.3866667,42.8377778 L44.2355556,41.6866667 Z M47.2777778,43.9066667 C49.0044444,42.18 50.1555556,39.6311111 50.1555556,36.9177778 C50.1555556,34.2044444 49.0866667,31.7377778 47.2777778,29.9288889 L48.4288889,28.7777778 C50.5666667,30.9155556 51.8822222,33.7933333 51.8822222,36.8355556 C51.8822222,40.1244444 50.5666667,43.0022222 48.4288889,45.0577778 L47.2777778,43.9066667 Z M51.6355556,47.5244444 L50.4844444,46.3733333 C52.8688889,43.9888889 54.3488889,40.6177778 54.3488889,37 C54.3488889,33.3822222 52.8688889,30.0111111 50.4844444,27.6266667 L51.6355556,26.4755556 C54.3488889,29.1066667 55.9933333,32.8888889 55.9933333,37 C55.9933333,41.1111111 54.3488889,44.8111111 51.6355556,47.5244444 Z" id="Shape"></path>
                <rect id="Rectangle-path" fill="#C1C1C1" fill-rule="nonzero" x="18.0066667" y="29.9288889" width="7.64666667" height="14.1422222"></rect>
                <polygon id="Shape" fill="#C1C1C1" fill-rule="nonzero" points="26.4755556 44.0711111 39.22 52.9511111 39.22 21.0488889 26.4755556 29.9288889"></polygon>
                <path d="M50.4844444,27.6266667 C52.8688889,30.0111111 54.3488889,33.3822222 54.3488889,37 C54.3488889,40.6177778 52.8688889,43.9888889 50.4844444,46.3733333 L51.6355556,47.5244444 C54.3488889,44.8111111 55.9933333,41.1111111 55.9933333,37 C55.9933333,32.8888889 54.3488889,29.1066667 51.6355556,26.4755556 L50.4844444,27.6266667 Z" id="Shape" fill="#C1C1C1" fill-rule="nonzero"></path>
                <path d="M48.4288889,28.7777778 L47.2777778,29.9288889 C49.0866667,31.7377778 50.1555556,34.2044444 50.1555556,36.9177778 C50.1555556,39.6311111 49.0044444,42.18 47.2777778,43.9066667 L48.4288889,45.0577778 C50.5666667,43.0022222 51.8822222,40.1244444 51.8822222,36.8355556 C51.8822222,33.7933333 50.5666667,30.9155556 48.4288889,28.7777778 Z" id="Shape" fill="#C1C1C1" fill-rule="nonzero"></path>
                <path d="M45.3044444,31.1622222 L44.1533333,32.3133333 C45.3866667,33.5466667 46.1266667,35.1911111 46.1266667,37 C46.1266667,38.8088889 45.3866667,40.4533333 44.2355556,41.6866667 L45.3866667,42.8377778 C46.8666667,41.3577778 47.7711111,39.22 47.7711111,37 C47.7711111,34.6977778 46.7844444,32.6422222 45.3044444,31.1622222 Z" id="Shape" fill="#C1C1C1" fill-rule="nonzero"></path>
            </g>
        </g>
    </g>
</svg>