<?xml version="1.0" encoding="UTF-8"?>
<svg width="55px" height="53px" viewBox="0 0 55 53" version="1.1" xmlns="http://www.w3.org/2000/svg" xmlns:xlink="http://www.w3.org/1999/xlink">
    <!-- Generator: Sketch 47.1 (45422) - http://www.bohemiancoding.com/sketch -->
    <title>Group</title>
    <desc>Created with Sketch.</desc>
    <defs></defs>
    <g id="Page-1" stroke="none" stroke-width="1" fill="none" fill-rule="evenodd">
        <g id="mute" transform="translate(-52.000000, -49.000000)">
            <g id="Group" transform="translate(20.000000, 16.000000)">
                <path d="M59.5,1.98333333 C27.7666667,1.98333333 1.98333333,27.7666667 1.98333333,59.5 C1.98333333,91.2333333 27.7666667,117.016667 59.5,117.016667 C91.2333333,117.016667 117.016667,91.2333333 117.016667,59.5 C117.016667,27.7666667 91.2333333,1.98333333 59.5,1.98333333 Z M44.4266667,70.8711111 L32.13,70.8711111 L32.13,48.1288889 L44.4266667,48.1288889 L44.4266667,70.8711111 Z M66.3755556,85.1511111 L45.8811111,70.8711111 L45.8811111,48.1288889 L66.3755556,33.8488889 L66.3755556,85.1511111 Z M86.3411111,66.3755556 L86.3411111,66.3755556 C85.9444444,67.0366667 85.0188889,67.0366667 84.6222222,66.5077778 L79.2011111,61.0866667 L73.9122222,66.5077778 C73.5155556,67.0366667 72.59,67.0366667 72.1933333,66.5077778 L72.0611111,66.5077778 C71.5322222,66.1111111 71.5322222,65.1855556 72.0611111,64.7888889 L77.6144444,59.5 L72.1933333,54.2111111 C71.6644444,53.8144444 71.6644444,52.8888889 72.1933333,52.4922222 C72.59,51.9633333 73.5155556,51.9633333 73.9122222,52.4922222 L79.3333333,57.7811111 L84.6222222,52.4922222 C85.0188889,51.9633333 85.9444444,51.9633333 86.3411111,52.4922222 C86.87,52.8888889 86.87,53.8144444 86.3411111,54.2111111 L81.0522222,59.5 L86.4733333,64.7888889 C86.87,65.3177778 86.87,66.1111111 86.3411111,66.3755556 Z" id="Shape"></path>
                <rect id="Rectangle-path" fill="#C1C1C1" fill-rule="nonzero" x="32.13" y="48.1288889" width="12.2966667" height="22.7422222"></rect>
                <polygon id="Shape" fill="#C1C1C1" fill-rule="nonzero" points="45.8811111 70.8711111 66.3755556 85.1511111 66.3755556 33.8488889 45.8811111 48.1288889"></polygon>
                <path d="M81.0522222,59.5 L86.3411111,54.2111111 C86.87,53.8144444 86.87,52.8888889 86.3411111,52.4922222 C85.9444444,51.9633333 85.0188889,51.9633333 84.6222222,52.4922222 L79.3333333,57.7811111 L73.9122222,52.4922222 C73.5155556,51.9633333 72.59,51.9633333 72.1933333,52.4922222 C71.6644444,52.8888889 71.6644444,53.8144444 72.1933333,54.2111111 L77.6144444,59.5 L72.0611111,64.7888889 C71.5322222,65.1855556 71.5322222,66.1111111 72.0611111,66.5077778 L72.1933333,66.5077778 C72.59,67.0366667 73.5155556,67.0366667 73.9122222,66.5077778 L79.2011111,61.0866667 L84.6222222,66.5077778 C85.0188889,67.0366667 85.9444444,67.0366667 86.3411111,66.5077778 L86.3411111,66.3755556 C86.87,66.1111111 86.87,65.3177778 86.4733333,64.7888889 L81.0522222,59.5 Z" id="Shape" fill="#C1C1C1" fill-rule="nonzero"></path>
            </g>
        </g>
    </g>
</svg>