<?xml version="1.0" encoding="UTF-8"?>
<svg width="26px" height="25px" viewBox="0 0 26 25" version="1.1" xmlns="http://www.w3.org/2000/svg" xmlns:xlink="http://www.w3.org/1999/xlink">
    <!-- Generator: Sketch 47.1 (45422) - http://www.bohemiancoding.com/sketch -->
    <title>skip left</title>
    <desc>Created with Sketch.</desc>
    <defs></defs>
    <g id="Page-1" stroke="none" stroke-width="1" fill="none" fill-rule="evenodd">
        <g id="skip-left" transform="translate(12.000000, 13.000000) rotate(180.000000) translate(-12.000000, -13.000000) translate(-19.000000, -18.000000)">
            <g id="Group">
                <path d="M29.9336505,1.58974359 C13.418533,1.58974359 0,15.0082766 0,31.5233941 C0,48.0385116 13.418533,61.4570446 29.9336505,61.4570446 C46.448768,61.4570446 59.867301,48.0385116 59.867301,31.5233941 C59.867301,15.0082766 46.448768,1.58974359 29.9336505,1.58974359 Z M17.0656214,43.5656673 L17.0656214,31.5233941 L17.0656214,19.4811209 L37.7095183,31.5233941 L17.0656214,43.5656673 Z M42.8016796,43.5656673 L39.842721,43.5656673 L39.842721,19.4811209 L42.8016796,19.4811209 L42.8016796,43.5656673 Z" id="Shape"></path>
                <polygon id="Shape" fill="#C1C1C1" fill-rule="nonzero" points="17.4871795 31.1191963 17.4871795 43.1614695 38.1310764 31.1191963 17.4871795 19.0769231"></polygon>
                <rect id="Rectangle-path" fill="#C1C1C1" fill-rule="nonzero" x="39.7435897" y="19.0769231" width="2.95895856" height="24.0845464"></rect>
            </g>
        </g>
    </g>
</svg>