<?xml version="1.0" encoding="UTF-8"?>
<svg width="55px" height="55px" viewBox="0 0 55 55" version="1.1" xmlns="http://www.w3.org/2000/svg" xmlns:xlink="http://www.w3.org/1999/xlink">
    <!-- Generator: Sketch 47.1 (45422) - http://www.bohemiancoding.com/sketch -->
    <title>Group</title>
    <desc>Created with Sketch.</desc>
    <defs></defs>
    <g id="Page-1" stroke="none" stroke-width="1" fill="none" fill-rule="evenodd">
        <g id="noun_255306_cc">
            <g id="Group">
                <path d="M27.5,0.916666667 C12.8333333,0.916666667 0.916666667,12.8333333 0.916666667,27.5 C0.916666667,42.1666667 12.8333333,54.0833333 27.5,54.0833333 C42.1666667,54.0833333 54.0833333,42.1666667 54.0833333,27.5 C54.0833333,12.8333333 42.1666667,0.916666667 27.5,0.916666667 Z M26.6444444,12.1 L28.4166667,12.1 L28.4166667,21.0833333 L26.6444444,21.0833333 L26.6444444,12.1 Z M27.5,40.4555556 C20.5944444,40.4555556 14.9722222,34.8333333 14.9722222,27.9277778 C14.9722222,22.3055556 18.6388889,17.6 23.7111111,16.0111111 L23.7111111,17.9055556 C19.6166667,19.4333333 16.7444444,23.3444444 16.7444444,27.9888889 C16.7444444,33.9166667 21.5722222,38.7444444 27.5,38.7444444 C33.4277778,38.7444444 38.2555556,33.9166667 38.2555556,27.9888889 C38.2555556,23.4055556 35.4444444,19.5555556 31.4111111,17.9666667 L31.4111111,16.0722222 C36.4222222,17.7222222 40.0277778,22.4277778 40.0277778,27.9888889 C40.0277778,34.8333333 34.4055556,40.4555556 27.5,40.4555556 Z" id="Shape"></path>
                <path d="M27.5,0 C12.2833333,0 0,12.2833333 0,27.5 C0,42.7166667 12.2833333,55 27.5,55 C42.7166667,55 55,42.7166667 55,27.5 C55,12.2833333 42.7166667,0 27.5,0 Z M27.5,54.0833333 C12.8333333,54.0833333 0.916666667,42.1666667 0.916666667,27.5 C0.916666667,12.8333333 12.8333333,0.916666667 27.5,0.916666667 C42.1666667,0.916666667 54.0833333,12.8333333 54.0833333,27.5 C54.0833333,42.1666667 42.1666667,54.0833333 27.5,54.0833333 Z" id="Shape" fill="#C1C1C1" fill-rule="nonzero"></path>
                <path d="M31.4111111,16.0111111 L31.4111111,17.9055556 C35.4444444,19.4944444 38.2555556,23.3444444 38.2555556,27.9277778 C38.2555556,33.8555556 33.4277778,38.6833333 27.5,38.6833333 C21.5722222,38.6833333 16.7444444,33.8555556 16.7444444,27.9277778 C16.7444444,23.2833333 19.6777778,19.3722222 23.7111111,17.8444444 L23.7111111,15.95 C18.6388889,17.5388889 14.9722222,22.3055556 14.9722222,27.8666667 C14.9722222,34.7722222 20.5944444,40.3944444 27.5,40.3944444 C34.4055556,40.3944444 40.0277778,34.8333333 40.0277778,27.9277778 C40.0277778,22.3666667 36.4222222,17.6611111 31.4111111,16.0111111 Z" id="Shape" fill="#C1C1C1" fill-rule="nonzero"></path>
                <rect id="Rectangle-path" fill="#C1C1C1" fill-rule="nonzero" x="26.6444444" y="12.1" width="1.77222222" height="8.98333333"></rect>
            </g>
        </g>
    </g>
</svg>