<?xml version="1.0" encoding="UTF-8"?>
<svg width="55px" height="75px" viewBox="0 0 55 75" version="1.1" xmlns="http://www.w3.org/2000/svg" xmlns:xlink="http://www.w3.org/1999/xlink">
    <!-- Generator: Sketch 47.1 (45422) - http://www.bohemiancoding.com/sketch -->
    <title>pause</title>
    <desc>Created with Sketch.</desc>
    <defs></defs>
    <g id="Page-1" stroke="none" stroke-width="1" fill="none" fill-rule="evenodd">
        <g id="play-button" transform="translate(-60.000000, -51.000000)">
            <g id="pause" transform="translate(1.000000, 4.000000)">
                <g id="Group">
                    <path d="M86.2516484,3.94615385 C41.1527473,3.94615385 4.50989011,40.589011 4.50989011,85.6879121 C4.50989011,130.786813 41.1527473,167.42967 86.2516484,167.42967 C131.350549,167.42967 167.993407,130.786813 167.993407,85.6879121 C167.993407,40.589011 131.350549,3.94615385 86.2516484,3.94615385 Z M75.1648352,121.767033 L59.3802198,121.767033 L59.3802198,47.3538462 L75.1648352,47.3538462 L75.1648352,121.767033 Z M113.498901,121.767033 L97.7142857,121.767033 L97.7142857,47.3538462 L113.498901,47.3538462 L113.498901,121.767033 Z" id="Shape"></path>
                    <rect id="Rectangle-path" fill="#C1C1C1" fill-rule="nonzero" x="59.3802198" y="47.3538462" width="15.7846154" height="74.2252747"></rect>
                    <rect id="Rectangle-path" fill="#C1C1C1" fill-rule="nonzero" x="97.7142857" y="47.3538462" width="15.7846154" height="74.2252747"></rect>
                </g>
            </g>
        </g>
    </g>
</svg>