<?xml version="1.0" encoding="UTF-8"?>
<svg width="30px" height="32px" viewBox="0 0 30 32" version="1.1" xmlns="http://www.w3.org/2000/svg" xmlns:xlink="http://www.w3.org/1999/xlink">
    <!-- Generator: Sketch 47.1 (45422) - http://www.bohemiancoding.com/sketch -->
    <title>Group</title>
    <desc>Created with Sketch.</desc>
    <defs></defs>
    <g id="Page-1" stroke="none" stroke-width="1" fill="none" fill-rule="evenodd">
        <g id="noun_255309_cc" transform="translate(-22.000000, -21.000000)">
            <g id="Group">
                <path d="M37,1.23333333 C17.2666667,1.23333333 1.23333333,17.2666667 1.23333333,37 C1.23333333,56.7333333 17.2666667,72.7666667 37,72.7666667 C56.7333333,72.7666667 72.7666667,56.7333333 72.7666667,37 C72.7666667,17.2666667 56.7333333,1.23333333 37,1.23333333 Z M29.7644444,44.0711111 L22.1177778,44.0711111 L22.1177778,29.9288889 L29.7644444,29.9288889 L29.7644444,44.0711111 Z M43.3311111,52.9511111 L30.5866667,44.0711111 L30.5866667,29.9288889 L43.3311111,21.0488889 L43.3311111,52.9511111 Z M49.4977778,42.8377778 L48.3466667,41.6866667 C49.4977778,40.4533333 50.2377778,38.8088889 50.2377778,37 C50.2377778,35.1911111 49.4977778,33.5466667 48.2644444,32.3133333 L49.4155556,31.1622222 C50.9777778,32.6422222 51.8822222,34.6977778 51.8822222,37 C51.8822222,39.22 50.9777778,41.3577778 49.4977778,42.8377778 Z" id="Shape"></path>
                <rect id="Rectangle-path" fill="#C1C1C1" fill-rule="nonzero" x="22.1177778" y="29.9288889" width="7.64666667" height="14.1422222"></rect>
                <polygon id="Shape" fill="#C1C1C1" fill-rule="nonzero" points="30.5866667 44.0711111 43.3311111 52.9511111 43.3311111 21.0488889 30.5866667 29.9288889"></polygon>
                <path d="M48.2644444,32.3133333 C49.4977778,33.5466667 50.2377778,35.1911111 50.2377778,37 C50.2377778,38.8088889 49.4977778,40.4533333 48.3466667,41.6866667 L49.4977778,42.8377778 C50.9777778,41.3577778 51.8822222,39.22 51.8822222,37 C51.8822222,34.6977778 50.9777778,32.6422222 49.4155556,31.1622222 L48.2644444,32.3133333 Z" id="Shape" fill="#C1C1C1" fill-rule="nonzero"></path>
            </g>
        </g>
    </g>
</svg>